<?xml version="1.0" encoding="utf-8"?>
<!-- Generator: Adobe Illustrator 28.0.0, SVG Export Plug-In . SVG Version: 6.00 Build 0)  -->
<svg version="1.1" id="Layer_1" xmlns="http://www.w3.org/2000/svg" xmlns:xlink="http://www.w3.org/1999/xlink" x="0px" y="0px"
	 viewBox="0 0 100 100" style="enable-background:new 0 0 100 100;" xml:space="preserve">
<style type="text/css">
	.st0{fill:#27AAE1;stroke:#000000;stroke-width:0.75;stroke-miterlimit:10;}
	.st1{fill:url(#SVGID_1_);stroke:#000000;stroke-width:0.75;stroke-miterlimit:10;}
	
		.st2{fill:url(#SVGID_00000173162759597573361090000010671398508728304769_);stroke:#000000;stroke-width:0.75;stroke-miterlimit:10;}
	
		.st3{fill:url(#SVGID_00000038391301725451954350000002160199130556231060_);stroke:#000000;stroke-width:0.75;stroke-miterlimit:10;}
	
		.st4{fill:url(#SVGID_00000093868455693305006130000005278644861807489463_);stroke:#000000;stroke-width:0.75;stroke-miterlimit:10;}
	.st5{fill:none;}
</style>
<g>
	<circle class="st0" cx="50.03" cy="51.04" r="32.91"/>
	<linearGradient id="SVGID_1_" gradientUnits="userSpaceOnUse" x1="17.0945" y1="36.8332" x2="45.7518" y2="36.8332">
		<stop  offset="0.073" style="stop-color:#B7D433"/>
		<stop  offset="1" style="stop-color:#176A36"/>
	</linearGradient>
	<path class="st1" d="M41.79,19.17c0,0,9.56,11.14-1.03,19.4s-7.58-6.35-11.94-2.16s-5.61,26.55-11.7,14.63
		C17.12,51.04,15.37,27.3,41.79,19.17z"/>
	
		<linearGradient id="SVGID_00000107560815777415435380000009983689036586981275_" gradientUnits="userSpaceOnUse" x1="59.2712" y1="19.1977" x2="73.0639" y2="43.9338">
		<stop  offset="0.073" style="stop-color:#B7D433"/>
		<stop  offset="1" style="stop-color:#176A36"/>
	</linearGradient>
	
		<path style="fill:url(#SVGID_00000107560815777415435380000009983689036586981275_);stroke:#000000;stroke-width:0.75;stroke-miterlimit:10;" d="
		M58.27,19.17c0,0-10.56,11.9,3.84,17.67s12.45,10.38,12.2,14.99c-0.25,4.62,7.91,6.11,7.91,6.11S89.03,29.46,58.27,19.17z"/>
	
		<linearGradient id="SVGID_00000067213895335099101970000015863961421939546257_" gradientUnits="userSpaceOnUse" x1="28.6387" y1="57.9333" x2="66.1889" y2="57.9333">
		<stop  offset="0.073" style="stop-color:#B7D433"/>
		<stop  offset="1" style="stop-color:#176A36"/>
	</linearGradient>
	
		<path style="fill:url(#SVGID_00000067213895335099101970000015863961421939546257_);stroke:#000000;stroke-width:0.75;stroke-miterlimit:10;" d="
		M34.05,53.82c0,0,6.99,2.46,16.52-2.92s16.65,5.8,15.5,8.51c-1.14,2.71-16.77,5.93-16.77,1.27c0-4.66-9.32,6.06-15.25,5.72
		C28.12,66.06,25.66,52.3,34.05,53.82z"/>
	
		<linearGradient id="SVGID_00000084528591543271451050000006694372288389219229_" gradientUnits="userSpaceOnUse" x1="32.429" y1="77.6053" x2="71.0345" y2="77.6053">
		<stop  offset="0.073" style="stop-color:#B7D433"/>
		<stop  offset="1" style="stop-color:#176A36"/>
	</linearGradient>
	
		<path style="fill:url(#SVGID_00000084528591543271451050000006694372288389219229_);stroke:#000000;stroke-width:0.75;stroke-miterlimit:10;" d="
		M32.43,78.85c0,0,9.08-7.15,14.98-4.7s10.38,4.96,12.23,3.11c1.85-1.85,7.25-6.1,8.01-5.72c0.76,0.38-1.85-0.98,0.76,0.38
		c2.62,1.36,2.62,4.46,2.62,4.46S55.02,91.55,32.43,78.85z"/>
</g>
<g>
	<path id="SVGID_x5F_00000037677451132541630950000007656809571696516023_x5F_" class="st5" d="M75.34,28.46
		c11.6,14,9.65,34.74-4.35,46.34s-34.74,9.65-46.34-4.35S15.01,35.71,29,24.11S63.75,14.46,75.34,28.46z"/>
	<text>	<textPath  xlink:href="#SVGID_x5F_00000037677451132541630950000007656809571696516023_x5F_" startOffset="49.2564%">
<tspan  style="font-family:'Longhaul'; font-size:10px;">WORLD XPLORE</tspan>	</textPath>
</text>
</g>
<g>
	<path id="SVGID_x5F_00000033357468189425932730000004684495106092758177_x5F_" class="st5" d="M75.38,30.04
		c11.6,14,9.65,34.74-4.35,46.34s-34.74,9.65-46.34-4.35s-9.65-34.74,4.35-46.34S63.79,16.05,75.38,30.04z"/>
	<text>	<textPath  xlink:href="#SVGID_x5F_00000033357468189425932730000004684495106092758177_x5F_" startOffset="49.2564%">
<tspan  style="fill:#009444; font-family:'Longhaul'; font-size:10px;">WORLD XPLORE</tspan>	</textPath>
</text>
</g>
</svg>
